<?xml version="1.0" encoding="UTF-8"?>
<svg width="172px" height="46px" viewBox="0 0 172 46" version="1.1" xmlns="http://www.w3.org/2000/svg" xmlns:xlink="http://www.w3.org/1999/xlink">
    <!-- Generator: Sketch 46.2 (44496) - http://www.bohemiancoding.com/sketch -->
    <title>logo2-black-chi</title>
    <desc>Created with Sketch.</desc>
    <defs>
        <rect id="path-1" x="0" y="0" width="29" height="22.4545455"></rect>
    </defs>
    <g id="Symbols" stroke="none" stroke-width="1" fill="none" fill-rule="evenodd">
        <g id="HEADER-new" transform="translate(-373.000000, -1.000000)">
            <g id="Group" transform="translate(12.000000, 0.000000)">
                <g id="logo2-blackOrange" transform="translate(361.000000, 0.000000)">
                    <g id="Group-13-Copy" stroke-width="1" transform="translate(0.000000, -1.166667)">
                        <g id="openAccessIcon" opacity="0.406646286" transform="translate(14.451827, 0.000000)">
                            <g>
                                <mask id="mask-2" fill="white">
                                    <use xlink:href="#path-1"></use>
                                </mask>
                                <g id="Rectangle-7"></g>
                                <path d="M5.16438356,24.030303 L5.16438356,34.9687722 C5.16438356,40.4558616 9.61087064,44.9090909 15.0958904,44.9090909 C20.5821162,44.9090909 25.0273973,40.4586587 25.0273973,34.9687722 L25.0273973,12.1069853 C25.0273973,6.61989593 20.5809102,2.16666667 15.0958904,2.16666667 C9.60966463,2.16666667 5.16438356,6.61709893 5.16438356,12.1069853 L5.16438356,13.5909091 L9.1369863,13.5909091 L9.1369863,12.4609787 C9.1369863,9.16882107 11.8115751,6.5 15.0958904,6.5 C18.3869023,6.5 21.0547945,9.17049837 21.0547945,12.4609787 L21.0547945,26.1706624 C21.0547945,29.46282 18.3802057,32.1316411 15.0958904,32.1316411 C11.8048785,32.1316411 9.1369863,29.4611427 9.1369863,26.1706624 L9.1369863,24.030303 L5.16438356,24.030303 Z" id="Combined-Shape" fill="#B23B00" mask="url(#mask-2)"></path>
                                <g id="Group-4" transform="translate(3.575342, 16.151515)">
                                    <ellipse id="Oval" fill="#B23B00" cx="11.5205479" cy="11.4242424" rx="11.5205479" ry="11.4242424"></ellipse>
                                    <ellipse id="Oval-Copy" fill="#FFFFFF" cx="11.5205479" cy="11.4242424" rx="7.74657534" ry="7.68181818"></ellipse>
                                    <ellipse id="Oval-Copy-2" fill="#B23B00" cx="11.5205479" cy="11.2272727" rx="3.17808219" ry="3.15151515"></ellipse>
                                </g>
                            </g>
                        </g>
                        <path d="M1.38910963,20.9029333 C2.31025444,20.0467902 3.37682716,19.4046924 4.5888598,18.9766208 C5.80089244,18.5485492 7.0129069,18.3345167 8.22493953,18.3345167 C9.48545348,18.3345167 10.5702064,18.4935123 11.4792309,18.8115083 C12.3882554,19.1295044 13.1336443,19.5575695 13.7154199,20.0957167 C14.2971956,20.6338638 14.7274607,21.2515007 15.0062282,21.9486458 C15.2849957,22.645791 15.4243774,23.3735018 15.4243774,24.1318 L15.4243774,33.0111833 C15.4243774,33.6227142 15.4364976,34.1853141 15.4607382,34.699 C15.4849789,35.2126859 15.5213393,35.7019032 15.5698206,36.1666667 L12.6609568,36.1666667 C12.5882349,35.2860623 12.5518744,34.4054711 12.5518744,33.5248667 L12.4791528,33.5248667 C11.7519332,34.6500834 10.891403,35.4450616 9.89753621,35.909825 C8.90366945,36.3745884 7.75225571,36.6069667 6.44326047,36.6069667 C5.64331892,36.6069667 4.87974982,36.4968928 4.15253023,36.2767417 C3.42531065,36.0565906 2.78900306,35.7263689 2.24358837,35.2860667 C1.69817368,34.8457645 1.26790855,34.3015102 0.952780066,33.6532875 C0.637651581,33.0050648 0.480089701,32.2528932 0.480089701,31.39675 C0.480089701,30.2715333 0.728552665,29.3297899 1.22548605,28.5714917 C1.72241943,27.8131934 2.40114752,27.1955566 3.2616907,26.7185625 C4.12223387,26.2415684 5.12820587,25.8991163 6.27963688,25.6911958 C7.43106788,25.4832753 8.66126256,25.3793167 9.97025781,25.3793167 L12.3700704,25.3793167 L12.3700704,24.6454833 C12.3700704,24.2051811 12.2852294,23.7648855 12.1155449,23.3245833 C11.9458603,22.8842811 11.6913372,22.4867921 11.3519681,22.1321042 C11.012599,21.7774163 10.5883939,21.4961163 10.0793402,21.2881958 C9.57028649,21.0802753 8.96427926,20.9763167 8.26130033,20.9763167 C7.63104336,20.9763167 7.07957678,21.0374688 6.60688405,21.159775 C6.13419132,21.2820812 5.70392619,21.4349616 5.31607575,21.6184208 C4.9282253,21.8018801 4.57674111,22.0159127 4.26161262,22.260525 C3.94648414,22.5051373 3.64348052,22.7375156 3.35259269,22.9576667 L1.38910963,20.9029333 Z M10.6247522,27.8009667 C9.84905127,27.8009667 9.0551818,27.8437732 8.24311993,27.9293875 C7.43105807,28.0150018 6.69172925,28.1801127 6.0251113,28.424725 C5.35849334,28.6693373 4.81308684,29.0117895 4.38887542,29.4520917 C3.96466399,29.8923939 3.75256146,30.4549938 3.75256146,31.1399083 C3.75256146,32.1428189 4.08586544,32.8644145 4.75248339,33.3047167 C5.41910134,33.7450189 6.32205211,33.9651667 7.46136279,33.9651667 C8.35826694,33.9651667 9.12183605,33.8122863 9.75209302,33.5065208 C10.38235,33.2007554 10.8913961,32.8032663 11.2792465,32.3140417 C11.667097,31.824817 11.9458603,31.2805627 12.1155449,30.6812625 C12.2852294,30.0819623 12.3700704,29.4887863 12.3700704,28.9017167 L12.3700704,27.8009667 L10.6247522,27.8009667 Z M20.4188711,18.7748167 L23.6913429,18.7748167 L23.6913429,21.26985 L23.7640645,21.26985 C24.3943214,20.3403231 25.2609118,19.6187276 26.3638615,19.1050417 C27.4668112,18.5913558 28.6000447,18.3345167 29.763596,18.3345167 C31.0968319,18.3345167 32.3027863,18.5668949 33.3814954,19.0316583 C34.4602044,19.4964218 35.3813354,20.1446347 36.144916,20.9763167 C36.9084965,21.8079986 37.4963235,22.780318 37.9084146,23.8933042 C38.3205057,25.0062903 38.5265482,26.1987575 38.5265482,27.4707417 C38.5265482,28.767187 38.3205057,29.9718847 37.9084146,31.0848708 C37.4963235,32.197857 36.9084965,33.1640612 36.144916,33.9835125 C35.3813354,34.8029638 34.4602044,35.4450616 33.3814954,35.909825 C32.3027863,36.3745884 31.0968319,36.6069667 29.763596,36.6069667 C28.5273227,36.6069667 27.3637888,36.3440124 26.2729595,35.8180958 C25.1821301,35.2921793 24.3458401,34.576699 23.7640645,33.6716333 L23.6913429,33.6716333 L23.6913429,46.5137167 L20.4188711,46.5137167 L20.4188711,18.7748167 Z M29.3636272,21.4166167 C28.4909637,21.4166167 27.7031543,21.5694971 27.0001754,21.8752625 C26.2971965,22.1810279 25.7033094,22.5968626 25.2184963,23.1227792 C24.7336833,23.6486957 24.3579588,24.2846782 24.0913116,25.0307458 C23.8246645,25.7768135 23.6913429,26.5901373 23.6913429,27.4707417 C23.6913429,28.3513461 23.8246645,29.1646699 24.0913116,29.9107375 C24.3579588,30.6568051 24.7336833,31.2927876 25.2184963,31.8187042 C25.7033094,32.3446207 26.2971965,32.7604554 27.0001754,33.0662208 C27.7031543,33.3719863 28.4909637,33.5248667 29.3636272,33.5248667 C30.2362907,33.5248667 31.0241001,33.3719863 31.7270791,33.0662208 C32.430058,32.7604554 33.0239451,32.3446207 33.5087581,31.8187042 C33.9935712,31.2927876 34.3692957,30.6568051 34.6359429,29.9107375 C34.90259,29.1646699 35.0359116,28.3513461 35.0359116,27.4707417 C35.0359116,26.5901373 34.90259,25.7768135 34.6359429,25.0307458 C34.3692957,24.2846782 33.9935712,23.6486957 33.5087581,23.1227792 C33.0239451,22.5968626 32.430058,22.1810279 31.7270791,21.8752625 C31.0241001,21.5694971 30.2362907,21.4166167 29.3636272,21.4166167 Z M45.3390817,28.6815667 C45.3390817,29.4398649 45.5027037,30.1308844 45.8299525,30.7546458 C46.1572013,31.3784073 46.5874664,31.9104311 47.1207608,32.3507333 C47.6540552,32.7910355 48.2721825,33.1334877 48.9751615,33.3781 C49.6781404,33.6227123 50.4053491,33.7450167 51.1568093,33.7450167 C52.1749167,33.7450167 53.0596873,33.5065232 53.8111475,33.0295292 C54.5626078,32.5525351 55.253456,31.9226678 55.883713,31.1399083 L58.3562472,33.047875 C56.5381982,35.4206146 53.9929679,36.6069667 50.7204797,36.6069667 C49.3630032,36.6069667 48.1328085,36.3745884 47.0298588,35.909825 C45.9269091,35.4450616 44.993658,34.8029638 44.2300774,33.9835125 C43.4664969,33.1640612 42.8786698,32.197857 42.4665787,31.0848708 C42.0544876,29.9718847 41.8484452,28.767187 41.8484452,27.4707417 C41.8484452,26.1742963 42.0726679,24.9695986 42.5211199,23.8566125 C42.969572,22.7436264 43.5876994,21.7774222 44.3755206,20.9579708 C45.1633418,20.1385195 46.102653,19.4964218 47.1934824,19.0316583 C48.2843118,18.5668949 49.4720859,18.3345167 50.7568405,18.3345167 C52.2840017,18.3345167 53.5747971,18.6035862 54.6292655,19.1417333 C55.6837339,19.6798805 56.5503242,20.3831304 57.2290625,21.2515042 C57.9078007,22.119878 58.3986666,23.0983126 58.7016748,24.1868375 C59.0046829,25.2753624 59.1561847,26.3822166 59.1561847,27.5074333 L59.1561847,28.6815667 L45.3390817,28.6815667 Z M55.6655482,26.0397667 C55.6413075,25.3059297 55.5261662,24.6332558 55.3201206,24.021725 C55.1140751,23.4101942 54.8050114,22.8781703 54.3929203,22.4256375 C53.9808292,21.9731047 53.465723,21.6184221 52.8475864,21.3615792 C52.2294497,21.1047362 51.5083011,20.9763167 50.6841189,20.9763167 C49.8841774,20.9763167 49.1509087,21.1291971 48.4842907,21.4349625 C47.8176728,21.7407279 47.254086,22.138217 46.7935136,22.6274417 C46.3329412,23.1166663 45.975397,23.6609206 45.7208701,24.2602208 C45.4663433,24.8595211 45.3390817,25.4526971 45.3390817,26.0397667 L55.6655482,26.0397667 Z M63.3143801,18.7748167 L66.5868518,18.7748167 L66.5868518,21.4533083 L66.6595734,21.4533083 C66.8777393,20.9885449 67.1686228,20.566595 67.5322326,20.1874458 C67.8958424,19.8082967 68.3018672,19.4841902 68.7503193,19.2151167 C69.1987714,18.9460431 69.6896372,18.7320105 70.2229316,18.5730125 C70.7562259,18.4140145 71.2895123,18.3345167 71.8228067,18.3345167 C72.356101,18.3345167 72.8409068,18.4078993 73.2772385,18.5546667 L73.1317954,22.1137583 C72.8651482,22.0403746 72.598505,21.9792225 72.3318578,21.9303 C72.0652106,21.8813775 71.7985675,21.8569167 71.5319203,21.8569167 C69.9320372,21.8569167 68.7079026,22.3094427 67.8594797,23.2145083 C67.0110569,24.119574 66.5868518,25.5260738 66.5868518,27.43405 L66.5868518,36.1666667 L63.3143801,36.1666667 L63.3143801,18.7748167 Z M86.2347469,21.6367667 L81.544204,21.6367667 L81.544204,29.525475 C81.544204,30.0146997 81.5563241,30.4978018 81.5805648,30.9747958 C81.6048055,31.4517899 81.6957065,31.879855 81.8532708,32.2590042 C82.010835,32.6381533 82.2532379,32.9439141 82.5804867,33.1762958 C82.9077355,33.4086776 83.3864812,33.5248667 84.0167382,33.5248667 C84.4045887,33.5248667 84.8045534,33.4881754 85.2166445,33.4147917 C85.6287356,33.341408 86.0044601,33.2068732 86.3438292,33.0111833 L86.3438292,36.0199 C85.9559788,36.2400511 85.4529928,36.3929315 84.8348562,36.4785458 C84.2167195,36.5641602 83.7379738,36.6069667 83.3986047,36.6069667 C82.1380907,36.6069667 81.1624191,36.4296254 80.4715605,36.0749375 C79.7807019,35.7202496 79.2716558,35.2616084 78.944407,34.699 C78.6171582,34.1363916 78.4232359,33.5065243 78.3626342,32.8093792 C78.3020326,32.112234 78.2717322,31.4089841 78.2717322,30.6996083 L78.2717322,21.6367667 L74.4902093,21.6367667 L74.4902093,18.7748167 L78.2717322,18.7748167 L78.2717322,13.894825 L81.544204,13.894825 L81.544204,18.7748167 L86.2347469,18.7748167 L86.2347469,21.6367667 Z M90.7565502,20.9029333 C91.677695,20.0467902 92.7442677,19.4046924 93.9563003,18.9766208 C95.168333,18.5485492 96.3803474,18.3345167 97.5923801,18.3345167 C98.852894,18.3345167 99.937647,18.4935123 100.846671,18.8115083 C101.755696,19.1295044 102.501085,19.5575695 103.08286,20.0957167 C103.664636,20.6338638 104.094901,21.2515007 104.373669,21.9486458 C104.652436,22.645791 104.791818,23.3735018 104.791818,24.1318 L104.791818,33.0111833 C104.791818,33.6227142 104.803938,34.1853141 104.828179,34.699 C104.852419,35.2126859 104.88878,35.7019032 104.937261,36.1666667 L102.028397,36.1666667 C101.955675,35.2860623 101.919315,34.4054711 101.919315,33.5248667 L101.846593,33.5248667 C101.119374,34.6500834 100.258844,35.4450616 99.2649768,35.909825 C98.27111,36.3745884 97.1196963,36.6069667 95.810701,36.6069667 C95.0107595,36.6069667 94.2471904,36.4968928 93.5199708,36.2767417 C92.7927512,36.0565906 92.1564436,35.7263689 91.6110289,35.2860667 C91.0656142,34.8457645 90.6353491,34.3015102 90.3202206,33.6532875 C90.0050921,33.0050648 89.8475302,32.2528932 89.8475302,31.39675 C89.8475302,30.2715333 90.0959932,29.3297899 90.5929266,28.5714917 C91.08986,27.8131934 91.7685881,27.1955566 92.6291312,26.7185625 C93.4896744,26.2415684 94.4956464,25.8991163 95.6470774,25.6911958 C96.7985084,25.4832753 98.0287031,25.3793167 99.3376984,25.3793167 L101.737511,25.3793167 L101.737511,24.6454833 C101.737511,24.2051811 101.65267,23.7648855 101.482985,23.3245833 C101.313301,22.8842811 101.058778,22.4867921 100.719409,22.1321042 C100.38004,21.7774163 99.9558345,21.4961163 99.4467807,21.2881958 C98.937727,21.0802753 98.3317198,20.9763167 97.6287409,20.9763167 C96.9984839,20.9763167 96.4470173,21.0374688 95.9743246,21.159775 C95.5016319,21.2820812 95.0713667,21.4349616 94.6835163,21.6184208 C94.2956659,21.8018801 93.9441817,22.0159127 93.6290532,22.260525 C93.3139247,22.5051373 93.0109211,22.7375156 92.7200332,22.9576667 L90.7565502,20.9029333 Z M99.9921927,27.8009667 C99.2164918,27.8009667 98.4226223,27.8437732 97.6105605,27.9293875 C96.7984986,28.0150018 96.0591698,28.1801127 95.3925518,28.424725 C94.7259339,28.6693373 94.1805274,29.0117895 93.756316,29.4520917 C93.3321045,29.8923939 93.120002,30.4549938 93.120002,31.1399083 C93.120002,32.1428189 93.453306,32.8644145 94.1199239,33.3047167 C94.7865419,33.7450189 95.6894927,33.9651667 96.8288033,33.9651667 C97.7257075,33.9651667 98.4892766,33.8122863 99.1195336,33.5065208 C99.7497905,33.2007554 100.258837,32.8032663 100.646687,32.3140417 C101.034538,31.824817 101.313301,31.2805627 101.482985,30.6812625 C101.65267,30.0819623 101.737511,29.4887863 101.737511,28.9017167 L101.737511,27.8009667 L99.9921927,27.8009667 Z" id="aperta" fill="#000000"></path>
                        <path d="M114.825772,18.7748167 L118.098244,18.7748167 L117.418727,21.4533083 L117.491448,21.4533083 C117.827522,20.9885449 118.225451,20.566595 118.685249,20.1874458 C119.145047,19.8082967 119.633295,19.4841902 120.15001,19.2151167 C120.666724,18.9460431 121.211889,18.7320105 121.78552,18.5730125 C122.359151,18.4140145 122.912606,18.3345167 123.4459,18.3345167 C123.979194,18.3345167 124.445383,18.4078993 124.844481,18.5546667 L123.796118,22.1137583 C123.548088,22.0403746 123.296959,21.9792225 123.042723,21.9303 C122.788487,21.8813775 122.528049,21.8569167 122.261402,21.8569167 C120.661519,21.8569167 119.322581,22.3094427 118.244549,23.2145083 C117.166516,24.119574 116.385491,25.5260738 115.901449,27.43405 L113.686037,36.1666667 L110.413565,36.1666667 L114.825772,18.7748167 Z M132.831007,28.3195231 L132.653326,26.8504232 C132.514513,25.8112985 132.437958,25.2499407 132.42366,25.166333 L132.057785,23.2493368 C131.802598,21.8757812 131.396859,21.1890137 130.840555,21.1890137 C130.000181,21.1890137 129.135861,21.9832752 128.24757,23.5718221 C127.925813,23.4404385 127.796753,23.249338 127.860386,22.9985148 C128.048253,22.2579892 128.689486,21.4099806 129.784105,20.4544637 C130.878725,19.4989468 131.763354,19.0211955 132.438021,19.0211955 C133.763682,19.0211955 134.648826,20.9441445 135.093481,24.7901001 L135.207675,25.7396403 L135.784194,25.0767537 C139.329494,21.0396947 141.966151,19.0211955 143.694244,19.0211955 C144.144022,19.0211955 144.637397,19.1525771 145.174383,19.4153442 L142.44888,21.6906576 C142.186021,21.6070498 141.995413,21.5652466 141.87705,21.5652466 C140.575062,21.5652466 138.641233,23.0761351 136.075504,26.0979574 L135.342462,26.9579183 L135.469012,28.0687012 C135.931468,32.4043592 136.665726,34.5721558 137.671807,34.5721558 C138.595035,34.5721558 139.468966,33.9033039 140.293625,32.5655802 C140.570498,32.7805716 140.680147,33.0015315 140.622575,33.2284668 C140.471069,33.8256649 139.815822,34.5422918 138.656814,35.3783691 C137.497806,36.2144465 136.575064,36.6324788 135.888561,36.6324788 C134.515555,36.6324788 133.608396,34.6796704 133.167055,30.773995 L133.006275,29.4482218 L132.259598,30.3619303 C128.784463,34.5423169 125.946166,36.6324788 123.744623,36.6324788 C122.916085,36.6324788 122.264864,36.4234626 121.790942,36.005424 L124.368586,33.9630168 C124.632771,34.3213356 125.001582,34.5004924 125.475033,34.5004924 C126.81253,34.5004924 128.661139,33.1389011 131.020916,30.4156779 L132.325932,28.9107463 L132.831007,28.3195231 Z M147.212158,18.7748167 L150.48463,18.7748167 L146.072423,36.1666667 L142.799952,36.1666667 L147.212158,18.7748167 Z M148.031019,12.5372333 C148.198572,11.87678 148.579194,11.3080649 149.172897,10.8310708 C149.766601,10.3540768 150.390692,10.1155833 151.045189,10.1155833 C151.699687,10.1155833 152.202769,10.3540768 152.554451,10.8310708 C152.906134,11.3080649 152.998197,11.87678 152.830644,12.5372333 C152.663091,13.1976866 152.282469,13.7664018 151.688765,14.2433958 C151.095062,14.7203899 150.470971,14.9588833 149.816473,14.9588833 C149.161976,14.9588833 148.658893,14.7203899 148.307211,14.2433958 C147.955529,13.7664018 147.863466,13.1976866 148.031019,12.5372333 Z M153.842888,18.7748167 L157.624411,18.7748167 L159.408676,32.0938917 L167.732713,18.7748167 L171.223349,18.7748167 L160.048034,36.1666667 L156.448315,36.1666667 L153.842888,18.7748167 Z" id="rxiv" fill="#000000"></path>
                    </g>
                    <path d="M46.5285249,42.3914167 C46.0360042,42.4089168 45.6119918,42.4482914 45.2564751,42.5095417 C44.9009584,42.570792 44.6078782,42.6539161 44.3772259,42.7589167 C44.1465736,42.8639172 43.9757547,42.9890409 43.8647641,43.1342917 C43.7537735,43.2795424 43.6982791,43.4449157 43.6982791,43.6304167 C43.6982791,43.8054175 43.7268934,43.956791 43.7841229,44.0845417 C43.8413524,44.2122923 43.9176573,44.3172913 44.0130399,44.3995417 C44.1084224,44.4817921 44.2185442,44.5421665 44.3434086,44.5806667 C44.468273,44.6191669 44.5983382,44.6384167 44.733608,44.6384167 C44.9347784,44.6384167 45.1194709,44.6165419 45.287691,44.5727917 C45.4559111,44.5290414 45.6119893,44.4677921 45.7559302,44.3890417 C45.8998712,44.3102913 46.0342718,44.2166672 46.1591362,44.1081667 C46.2840006,43.9996661 46.407129,43.8824173 46.5285249,43.7564167 L46.5285249,42.3914167 Z M43.4849701,40.4331667 C43.7555097,40.1601653 44.0399188,39.9536674 44.338206,39.8136667 C44.6364932,39.673666 44.9746626,39.6036667 45.3527243,39.6036667 C45.6302007,39.6036667 45.872989,39.6482912 46.0810963,39.7375417 C46.2892037,39.8267921 46.4617568,39.9545408 46.5987608,40.1207917 C46.7357648,40.2870425 46.8389498,40.4882905 46.9083189,40.7245417 C46.9776881,40.9607928 47.0123721,41.2241652 47.0123721,41.5146667 L47.0123721,44.9166667 L46.8146711,44.9166667 C46.7106174,44.9166667 46.6464519,44.8676672 46.6221728,44.7696667 L46.5493355,44.0976667 C46.4071289,44.2376674 46.2657914,44.3636661 46.1253189,44.4756667 C45.9848465,44.5876672 45.8383064,44.6821663 45.6856944,44.7591667 C45.5330823,44.8361671 45.3683331,44.8956665 45.1914419,44.9376667 C45.0145506,44.9796669 44.82032,45.0006667 44.6087442,45.0006667 C44.4318529,45.0006667 44.2601669,44.9744169 44.0936811,44.9219167 C43.9271952,44.8694164 43.7789209,44.7889172 43.6488538,44.6804167 C43.5187867,44.5719161 43.4147346,44.4327925 43.3366944,44.2630417 C43.2586541,44.0932908 43.2196346,43.8894179 43.2196346,43.6514167 C43.2196346,43.4309156 43.2820658,43.2261676 43.4069302,43.0371667 C43.5317946,42.8481657 43.7277595,42.6836674 43.9948306,42.5436667 C44.2619017,42.403666 44.6044065,42.2916671 45.0223555,42.2076667 C45.4403044,42.1236662 45.9423559,42.0746667 46.5285249,42.0606667 L46.5285249,41.5146667 C46.5285249,41.0316643 46.4253399,40.659793 46.2189668,40.3990417 C46.0125937,40.1382904 45.706507,40.0079167 45.3006977,40.0079167 C45.0509689,40.0079167 44.8385291,40.0429163 44.6633721,40.1129167 C44.4882151,40.182917 44.3399408,40.2599162 44.2185449,40.3439167 C44.0971489,40.4279171 43.9982994,40.5049163 43.9219934,40.5749167 C43.8456873,40.644917 43.7815219,40.6799167 43.729495,40.6799167 C43.691342,40.6799167 43.6601264,40.6711668 43.6358472,40.6536667 C43.611568,40.6361666 43.5907576,40.6134168 43.5734153,40.5854167 L43.4849701,40.4331667 Z M49.7183322,40.6064167 C49.9576557,40.3054152 50.2342609,40.0639176 50.5481561,39.8819167 C50.8620514,39.6999158 51.2114931,39.6089167 51.5964917,39.6089167 C51.8809051,39.6089167 52.1314973,39.6544162 52.3482757,39.7454167 C52.5650542,39.8364171 52.7445441,39.9676658 52.8867508,40.1391667 C53.0289575,40.3106675 53.136478,40.5171655 53.2093156,40.7586667 C53.2821532,41.0001679 53.3185714,41.2731651 53.3185714,41.5776667 L53.3185714,44.9166667 L52.8191163,44.9166667 L52.8191163,41.5776667 C52.8191163,41.0876642 52.7081274,40.7035431 52.4861462,40.4252917 C52.264165,40.1470403 51.9259956,40.0079167 51.4716279,40.0079167 C51.1351877,40.0079167 50.82043,40.0945408 50.5273455,40.2677917 C50.234261,40.4410425 49.9732636,40.6816651 49.7443455,40.9896667 L49.7443455,44.9166667 L49.2448904,44.9166667 L49.2448904,39.6929167 L49.5206312,39.6929167 C49.6073426,39.6929167 49.6576345,39.7366662 49.6715083,39.8241667 L49.7183322,40.6064167 Z M60.9988505,39.6089167 C61.3699753,39.6089167 61.7020749,39.672791 61.9951595,39.8005417 C62.288244,39.9282923 62.5353678,40.1094155 62.7365382,40.3439167 C62.9377086,40.5784178 63.0911855,40.86104 63.1969734,41.1917917 C63.3027613,41.5225433 63.3556545,41.8926646 63.3556545,42.3021667 C63.3556545,42.7116687 63.3027613,43.080915 63.1969734,43.4099167 C63.0911855,43.7389183 62.9377086,44.0206655 62.7365382,44.2551667 C62.5353678,44.4896678 62.288244,44.669916 61.9951595,44.7959167 C61.7020749,44.9219173 61.3699753,44.9849167 60.9988505,44.9849167 C60.6277257,44.9849167 60.2956261,44.9219173 60.0025415,44.7959167 C59.709457,44.669916 59.4614661,44.4896678 59.2585615,44.2551667 C59.0556568,44.0206655 58.9013128,43.7389183 58.7955249,43.4099167 C58.689737,43.080915 58.6368439,42.7116687 58.6368439,42.3021667 C58.6368439,41.8926646 58.689737,41.5225433 58.7955249,41.1917917 C58.9013128,40.86104 59.0556568,40.5784178 59.2585615,40.3439167 C59.4614661,40.1094155 59.709457,39.9282923 60.0025415,39.8005417 C60.2956261,39.672791 60.6277257,39.6089167 60.9988505,39.6089167 Z M60.9988505,44.5911667 C61.3075431,44.5911667 61.5772115,44.5377922 61.8078638,44.4310417 C62.0385161,44.3242911 62.2310125,44.1711677 62.3853588,43.9716667 C62.5397051,43.7721657 62.6550295,43.5315431 62.7313355,43.2497917 C62.8076416,42.9680403 62.845794,42.6521684 62.845794,42.3021667 C62.845794,41.9556649 62.8076416,41.6406681 62.7313355,41.3571667 C62.6550295,41.0736652 62.5397051,40.8312927 62.3853588,40.6300417 C62.2310125,40.4287907 62.0385161,40.2739172 61.8078638,40.1654167 C61.5772115,40.0569161 61.3075431,40.0026667 60.9988505,40.0026667 C60.6901579,40.0026667 60.4204895,40.0569161 60.1898372,40.1654167 C59.9591849,40.2739172 59.7666885,40.4287907 59.6123422,40.6300417 C59.4579959,40.8312927 59.3418044,41.0736652 59.2637641,41.3571667 C59.1857239,41.6406681 59.1467043,41.9556649 59.1467043,42.3021667 C59.1467043,42.6521684 59.1857239,42.9680403 59.2637641,43.2497917 C59.3418044,43.5315431 59.4579959,43.7721657 59.6123422,43.9716667 C59.7666885,44.1711677 59.9591849,44.3242911 60.1898372,44.4310417 C60.4204895,44.5377922 60.6901579,44.5911667 60.9988505,44.5911667 Z M65.8326977,43.7774167 C65.9332829,43.9279174 66.0382021,44.0547912 66.1474585,44.1580417 C66.2567148,44.2612922 66.3720393,44.3452913 66.4934352,44.4100417 C66.6148312,44.474792 66.7440292,44.5211665 66.8810332,44.5491667 C67.0180372,44.5771668 67.1628431,44.5911667 67.3154551,44.5911667 C67.6206793,44.5911667 67.8877464,44.5351672 68.1166645,44.4231667 C68.3455825,44.3111661 68.5372119,44.1527927 68.6915581,43.9480417 C68.8459044,43.7432906 68.962096,43.4982931 69.0401362,43.2130417 C69.1181765,42.9277902 69.157196,42.6136684 69.157196,42.2706667 C69.157196,41.4936628 69.0149915,40.9222935 68.7305781,40.5565417 C68.4461647,40.1907898 68.0386272,40.0079167 67.5079535,40.0079167 C67.1645764,40.0079167 66.8541542,40.0971658 66.5766777,40.2756667 C66.2992013,40.4541676 66.0512104,40.7026651 65.8326977,41.0211667 L65.8326977,43.7774167 Z M65.811887,40.6326667 C66.0408051,40.3176651 66.3087393,40.0674176 66.6156977,39.8819167 C66.922656,39.6964157 67.2668951,39.6036667 67.6484252,39.6036667 C68.2831527,39.6036667 68.7782673,39.8259144 69.1337841,40.2704167 C69.4893008,40.7149189 69.6670565,41.3816622 69.6670565,42.2706667 C69.6670565,42.6521686 69.6176317,43.00829 69.5187807,43.3390417 C69.4199297,43.6697933 69.2742568,43.9567905 69.0817575,44.2000417 C68.8892582,44.4432929 68.6534067,44.634916 68.374196,44.7749167 C68.0949853,44.9149174 67.7732909,44.9849167 67.409103,44.9849167 C67.0587889,44.9849167 66.7553036,44.9201673 66.4986379,44.7906667 C66.2419721,44.661166 66.0199943,44.4704179 65.8326977,44.2184167 L65.8326977,46.7646667 L65.3332425,46.7646667 L65.3332425,39.6929167 L65.6089834,39.6929167 C65.6956948,39.6929167 65.7459866,39.7366662 65.7598605,39.8241667 L65.811887,40.6326667 Z M75.2813023,41.7771667 C75.2813023,41.4971653 75.2422828,41.2460428 75.1642425,41.0237917 C75.0862023,40.8015406 74.9760804,40.6134174 74.8338738,40.4594167 C74.6916671,40.3054159 74.5225824,40.1872921 74.3266146,40.1050417 C74.1306469,40.0227913 73.9147387,39.9816667 73.6788837,39.9816667 C73.4118126,39.9816667 73.1724928,40.0236662 72.9609169,40.1076667 C72.7493411,40.1916671 72.5663828,40.3124159 72.4120365,40.4699167 C72.2576903,40.6274175 72.1336948,40.8164156 72.0400465,41.0369167 C71.9463982,41.2574178 71.8839669,41.5041653 71.8527508,41.7771667 L75.2813023,41.7771667 Z M71.8267375,42.0974167 L71.8267375,42.1971667 C71.8267375,42.5891686 71.8718268,42.9339152 71.9620066,43.2314167 C72.0521865,43.5289182 72.1805174,43.7782907 72.3470033,43.9795417 C72.5134892,44.1807927 72.7146566,44.3321662 72.9505116,44.4336667 C73.1863666,44.5351672 73.4499653,44.5859167 73.7413156,44.5859167 C74.0014498,44.5859167 74.2268961,44.557042 74.4176611,44.4992917 C74.6084262,44.4415414 74.7688399,44.376792 74.898907,44.3050417 C75.0289741,44.2332913 75.1321591,44.168542 75.2084651,44.1107917 C75.2847711,44.0530414 75.3402656,44.0241667 75.3749502,44.0241667 C75.4200401,44.0241667 75.4547241,44.0416665 75.4790033,44.0766667 L75.6142724,44.2446667 C75.5310295,44.3496672 75.4209077,44.4476662 75.2839037,44.5386667 C75.1468996,44.6296671 74.9942899,44.7075413 74.8260698,44.7722917 C74.6578497,44.837042 74.4774927,44.8886665 74.2849934,44.9271667 C74.0924941,44.9656669 73.8991305,44.9849167 73.704897,44.9849167 C73.3511145,44.9849167 73.028553,44.9227923 72.7372027,44.7985417 C72.4458524,44.674291 72.1961273,44.4931679 71.9880199,44.2551667 C71.7799126,44.0171655 71.6194989,43.7257934 71.5067741,43.3810417 C71.3940493,43.0362899 71.3376877,42.6416689 71.3376877,42.1971667 C71.3376877,41.8226648 71.3905809,41.4770433 71.4963688,41.1602917 C71.6021567,40.8435401 71.7547664,40.5705428 71.9542027,40.3412917 C72.1536389,40.1120405 72.3981613,39.9326673 72.6877774,39.8031667 C72.9773935,39.673666 73.3060247,39.6089167 73.6736811,39.6089167 C73.9650314,39.6089167 74.2355669,39.6596662 74.4852957,39.7611667 C74.7350245,39.8626672 74.9517997,40.0105407 75.1356279,40.2047917 C75.3194561,40.3990426 75.4642619,40.6379152 75.5700498,40.9214167 C75.6758377,41.2049181 75.7287309,41.5304148 75.7287309,41.8979167 C75.7287309,41.9749171 75.7183257,42.0274165 75.697515,42.0554167 C75.6767042,42.0834168 75.6420202,42.0974167 75.5934618,42.0974167 L71.8267375,42.0974167 Z M78.1277342,40.6064167 C78.3670577,40.3054152 78.6436629,40.0639176 78.9575581,39.8819167 C79.2714534,39.6999158 79.6208951,39.6089167 80.0058937,39.6089167 C80.2903071,39.6089167 80.5408992,39.6544162 80.7576777,39.7454167 C80.9744562,39.8364171 81.1539461,39.9676658 81.2961528,40.1391667 C81.4383595,40.3106675 81.54588,40.5171655 81.6187176,40.7586667 C81.6915552,41.0001679 81.7279734,41.2731651 81.7279734,41.5776667 L81.7279734,44.9166667 L81.2285183,44.9166667 L81.2285183,41.5776667 C81.2285183,41.0876642 81.1175293,40.7035431 80.8955482,40.4252917 C80.673567,40.1470403 80.3353976,40.0079167 79.8810299,40.0079167 C79.5445897,40.0079167 79.229832,40.0945408 78.9367475,40.2677917 C78.643663,40.4410425 78.3826656,40.6816651 78.1537475,40.9896667 L78.1537475,44.9166667 L77.6542924,44.9166667 L77.6542924,39.6929167 L77.9300332,39.6929167 C78.0167446,39.6929167 78.0670365,39.7366662 78.0809103,39.8241667 L78.1277342,40.6064167 Z M87.8578605,43.7774167 C87.9584457,43.9279174 88.0633649,44.0547912 88.1726213,44.1580417 C88.2818776,44.2612922 88.3972021,44.3452913 88.518598,44.4100417 C88.639994,44.474792 88.769192,44.5211665 88.906196,44.5491667 C89.0432,44.5771668 89.1880059,44.5911667 89.3406179,44.5911667 C89.6458421,44.5911667 89.9129092,44.5351672 90.1418272,44.4231667 C90.3707453,44.3111661 90.5623746,44.1527927 90.7167209,43.9480417 C90.8710672,43.7432906 90.9872587,43.4982931 91.065299,43.2130417 C91.1433393,42.9277902 91.1823588,42.6136684 91.1823588,42.2706667 C91.1823588,41.4936628 91.0401542,40.9222935 90.7557409,40.5565417 C90.4713275,40.1907898 90.06379,40.0079167 89.5331163,40.0079167 C89.1897391,40.0079167 88.879317,40.0971658 88.6018405,40.2756667 C88.3243641,40.4541676 88.0763732,40.7026651 87.8578605,41.0211667 L87.8578605,43.7774167 Z M87.8370498,40.6326667 C88.0659679,40.3176651 88.3339021,40.0674176 88.6408605,39.8819167 C88.9478188,39.6964157 89.2920579,39.6036667 89.673588,39.6036667 C90.3083155,39.6036667 90.8034301,39.8259144 91.1589468,40.2704167 C91.5144636,40.7149189 91.6922193,41.3816622 91.6922193,42.2706667 C91.6922193,42.6521686 91.6427945,43.00829 91.5439435,43.3390417 C91.4450925,43.6697933 91.2994196,43.9567905 91.1069203,44.2000417 C90.914421,44.4432929 90.6785695,44.634916 90.3993588,44.7749167 C90.1201481,44.9149174 89.7984536,44.9849167 89.4342658,44.9849167 C89.0839517,44.9849167 88.7804664,44.9201673 88.5238007,44.7906667 C88.2671349,44.661166 88.0451571,44.4704179 87.8578605,44.2184167 L87.8578605,46.7646667 L87.3584053,46.7646667 L87.3584053,39.6929167 L87.6341462,39.6929167 C87.7208576,39.6929167 87.7711494,39.7366662 87.7850233,39.8241667 L87.8370498,40.6326667 Z M94.1484518,40.9529167 C94.2282263,40.7394156 94.3192719,40.5495425 94.4215914,40.3832917 C94.5239108,40.2170408 94.6418365,40.0761672 94.7753721,39.9606667 C94.9089076,39.8451661 95.058049,39.756792 95.2228007,39.6955417 C95.3875523,39.6342914 95.5705106,39.6036667 95.7716811,39.6036667 C95.8792032,39.6036667 95.9849895,39.6132916 96.0890432,39.6325417 C96.1930969,39.6517918 96.2850096,39.6859164 96.3647841,39.7349167 L96.3231628,40.0814167 C96.3058205,40.1374169 96.2728707,40.1654167 96.2243123,40.1654167 C96.1826908,40.1654167 96.1193925,40.1531668 96.0344153,40.1286667 C95.9494381,40.1041665 95.8375821,40.0919167 95.6988439,40.0919167 C95.4976734,40.0919167 95.3199177,40.1225414 95.1655714,40.1837917 C95.0112251,40.245042 94.872489,40.3369161 94.7493588,40.4594167 C94.6262286,40.5819173 94.5187081,40.7332908 94.426794,40.9135417 C94.3348799,41.0937926 94.2507711,41.3011655 94.1744651,41.5356667 L94.1744651,44.9166667 L93.67501,44.9166667 L93.67501,39.6929167 L93.9403455,39.6929167 C93.9993093,39.6929167 94.0409301,39.7051665 94.0652093,39.7296667 C94.0894885,39.7541668 94.1050963,39.7961664 94.1120332,39.8556667 L94.1484518,40.9529167 Z M101.271468,41.7771667 C101.271468,41.4971653 101.232449,41.2460428 101.154409,41.0237917 C101.076368,40.8015406 100.966247,40.6134174 100.82404,40.4594167 C100.681833,40.3054159 100.512748,40.1872921 100.316781,40.1050417 C100.120813,40.0227913 99.9049048,39.9816667 99.6690498,39.9816667 C99.4019787,39.9816667 99.1626589,40.0236662 98.9510831,40.1076667 C98.7395072,40.1916671 98.5565489,40.3124159 98.4022027,40.4699167 C98.2478564,40.6274175 98.1238609,40.8164156 98.0302126,41.0369167 C97.9365643,41.2574178 97.874133,41.5041653 97.8429169,41.7771667 L101.271468,41.7771667 Z M97.8169037,42.0974167 L97.8169037,42.1971667 C97.8169037,42.5891686 97.8619929,42.9339152 97.9521728,43.2314167 C98.0423526,43.5289182 98.1706836,43.7782907 98.3371694,43.9795417 C98.5036553,44.1807927 98.7048227,44.3321662 98.9406777,44.4336667 C99.1765327,44.5351672 99.4401314,44.5859167 99.7314817,44.5859167 C99.9916159,44.5859167 100.217062,44.557042 100.407827,44.4992917 C100.598592,44.4415414 100.759006,44.376792 100.889073,44.3050417 C101.01914,44.2332913 101.122325,44.168542 101.198631,44.1107917 C101.274937,44.0530414 101.330432,44.0241667 101.365116,44.0241667 C101.410206,44.0241667 101.44489,44.0416665 101.469169,44.0766667 L101.604439,44.2446667 C101.521196,44.3496672 101.411074,44.4476662 101.27407,44.5386667 C101.137066,44.6296671 100.984456,44.7075413 100.816236,44.7722917 C100.648016,44.837042 100.467659,44.8886665 100.275159,44.9271667 C100.08266,44.9656669 99.8892967,44.9849167 99.6950631,44.9849167 C99.3412806,44.9849167 99.0187191,44.9227923 98.7273688,44.7985417 C98.4360185,44.674291 98.1862934,44.4931679 97.978186,44.2551667 C97.7700787,44.0171655 97.609665,43.7257934 97.4969402,43.3810417 C97.3842154,43.0362899 97.3278538,42.6416689 97.3278538,42.1971667 C97.3278538,41.8226648 97.380747,41.4770433 97.4865349,41.1602917 C97.5923228,40.8435401 97.7449326,40.5705428 97.9443688,40.3412917 C98.143805,40.1120405 98.3883275,39.9326673 98.6779435,39.8031667 C98.9675596,39.673666 99.2961909,39.6089167 99.6638472,39.6089167 C99.9551975,39.6089167 100.225733,39.6596662 100.475462,39.7611667 C100.725191,39.8626672 100.941966,40.0105407 101.125794,40.2047917 C101.309622,40.3990426 101.454428,40.6379152 101.560216,40.9214167 C101.666004,41.2049181 101.718897,41.5304148 101.718897,41.8979167 C101.718897,41.9749171 101.708492,42.0274165 101.687681,42.0554167 C101.66687,42.0834168 101.632186,42.0974167 101.583628,42.0974167 L97.8169037,42.0974167 Z M104.143914,43.7774167 C104.244499,43.9279174 104.349418,44.0547912 104.458674,44.1580417 C104.567931,44.2612922 104.683255,44.3452913 104.804651,44.4100417 C104.926047,44.474792 105.055245,44.5211665 105.192249,44.5491667 C105.329253,44.5771668 105.474059,44.5911667 105.626671,44.5911667 C105.931895,44.5911667 106.198962,44.5351672 106.42788,44.4231667 C106.656798,44.3111661 106.848428,44.1527927 107.002774,43.9480417 C107.15712,43.7432906 107.273312,43.4982931 107.351352,43.2130417 C107.429392,42.9277902 107.468412,42.6136684 107.468412,42.2706667 C107.468412,41.4936628 107.326207,40.9222935 107.041794,40.5565417 C106.757381,40.1907898 106.349843,40.0079167 105.819169,40.0079167 C105.475792,40.0079167 105.16537,40.0971658 104.887894,40.2756667 C104.610417,40.4541676 104.362426,40.7026651 104.143914,41.0211667 L104.143914,43.7774167 Z M104.123103,40.6326667 C104.352021,40.3176651 104.619955,40.0674176 104.926914,39.8819167 C105.233872,39.6964157 105.578111,39.6036667 105.959641,39.6036667 C106.594369,39.6036667 107.089483,39.8259144 107.445,40.2704167 C107.800517,40.7149189 107.978272,41.3816622 107.978272,42.2706667 C107.978272,42.6521686 107.928848,43.00829 107.829997,43.3390417 C107.731146,43.6697933 107.585473,43.9567905 107.392973,44.2000417 C107.200474,44.4432929 106.964623,44.634916 106.685412,44.7749167 C106.406201,44.9149174 106.084507,44.9849167 105.720319,44.9849167 C105.370005,44.9849167 105.06652,44.9201673 104.809854,44.7906667 C104.553188,44.661166 104.33121,44.4704179 104.143914,44.2184167 L104.143914,46.7646667 L103.644458,46.7646667 L103.644458,39.6929167 L103.920199,39.6929167 C104.006911,39.6929167 104.057203,39.7366662 104.071076,39.8241667 L104.123103,40.6326667 Z M110.434505,40.9529167 C110.514279,40.7394156 110.605325,40.5495425 110.707645,40.3832917 C110.809964,40.2170408 110.92789,40.0761672 111.061425,39.9606667 C111.194961,39.8451661 111.344102,39.756792 111.508854,39.6955417 C111.673605,39.6342914 111.856564,39.6036667 112.057734,39.6036667 C112.165256,39.6036667 112.271043,39.6132916 112.375096,39.6325417 C112.47915,39.6517918 112.571063,39.6859164 112.650837,39.7349167 L112.609216,40.0814167 C112.591874,40.1374169 112.558924,40.1654167 112.510365,40.1654167 C112.468744,40.1654167 112.405446,40.1531668 112.320468,40.1286667 C112.235491,40.1041665 112.123635,40.0919167 111.984897,40.0919167 C111.783727,40.0919167 111.605971,40.1225414 111.451625,40.1837917 C111.297278,40.245042 111.158542,40.3369161 111.035412,40.4594167 C110.912282,40.5819173 110.804761,40.7332908 110.712847,40.9135417 C110.620933,41.0937926 110.536824,41.3011655 110.460518,41.5356667 L110.460518,44.9166667 L109.961063,44.9166667 L109.961063,39.6929167 L110.226399,39.6929167 C110.285362,39.6929167 110.326983,39.7051665 110.351262,39.7296667 C110.375542,39.7541668 110.391149,39.7961664 110.398086,39.8556667 L110.434505,40.9529167 Z M114.768897,39.6929167 L114.768897,44.9166667 L114.274645,44.9166667 L114.274645,39.6929167 L114.768897,39.6929167 Z M114.982206,37.8921667 C114.982206,37.955167 114.969199,38.0137914 114.943186,38.0680417 C114.917173,38.1222919 114.883356,38.1704165 114.841734,38.2124167 C114.800113,38.2544169 114.751555,38.2876665 114.69606,38.3121667 C114.640565,38.3366668 114.581602,38.3489167 114.519169,38.3489167 C114.456737,38.3489167 114.397774,38.3366668 114.342279,38.3121667 C114.286784,38.2876665 114.238226,38.2544169 114.196605,38.2124167 C114.154983,38.1704165 114.122033,38.1222919 114.097754,38.0680417 C114.073475,38.0137914 114.061336,37.955167 114.061336,37.8921667 C114.061336,37.8291664 114.073475,37.768792 114.097754,37.7110417 C114.122033,37.6532914 114.154983,37.6034169 114.196605,37.5614167 C114.238226,37.5194165 114.286784,37.4861668 114.342279,37.4616667 C114.397774,37.4371665 114.456737,37.4249167 114.519169,37.4249167 C114.581602,37.4249167 114.640565,37.4371665 114.69606,37.4616667 C114.751555,37.4861668 114.800113,37.5194165 114.841734,37.5614167 C114.883356,37.6034169 114.917173,37.6532914 114.943186,37.7110417 C114.969199,37.768792 114.982206,37.8291664 114.982206,37.8921667 Z M117.584113,40.6064167 C117.823436,40.3054152 118.100042,40.0639176 118.413937,39.8819167 C118.727832,39.6999158 119.077274,39.6089167 119.462272,39.6089167 C119.746686,39.6089167 119.997278,39.6544162 120.214056,39.7454167 C120.430835,39.8364171 120.610325,39.9676658 120.752532,40.1391667 C120.894738,40.3106675 121.002259,40.5171655 121.075096,40.7586667 C121.147934,41.0001679 121.184352,41.2731651 121.184352,41.5776667 L121.184352,44.9166667 L120.684897,44.9166667 L120.684897,41.5776667 C120.684897,41.0876642 120.573908,40.7035431 120.351927,40.4252917 C120.129946,40.1470403 119.791776,40.0079167 119.337409,40.0079167 C119.000968,40.0079167 118.686211,40.0945408 118.393126,40.2677917 C118.100042,40.4410425 117.839044,40.6816651 117.610126,40.9896667 L117.610126,44.9166667 L117.110671,44.9166667 L117.110671,39.6929167 L117.386412,39.6929167 C117.473123,39.6929167 117.523415,39.7366662 117.537289,39.8241667 L117.584113,40.6064167 Z M124.759156,45.0006667 C124.408842,45.0006667 124.135705,44.9026676 123.939738,44.7066667 C123.74377,44.5106657 123.645787,44.2079187 123.645787,43.7984167 L123.645787,40.2284167 L122.901807,40.2284167 C122.863654,40.2284167 122.832439,40.2179168 122.808159,40.1969167 C122.78388,40.1759166 122.771741,40.1461669 122.771741,40.1076667 L122.771741,39.9134167 L123.656193,39.8504167 L123.781056,37.9814167 C123.787993,37.9499165 123.801867,37.9219168 123.822678,37.8974167 C123.843488,37.8729165 123.87297,37.8606667 123.911123,37.8606667 L124.145243,37.8606667 L124.145243,39.8556667 L125.778877,39.8556667 L125.778877,40.2284167 L124.145243,40.2284167 L124.145243,43.7721667 C124.145243,43.9156674 124.163452,44.0390412 124.19987,44.1422917 C124.236289,44.2455422 124.286581,44.3304163 124.350748,44.3969167 C124.414914,44.463417 124.490352,44.5124165 124.577063,44.5439167 C124.663775,44.5754168 124.757421,44.5911667 124.858007,44.5911667 C124.982871,44.5911667 125.090392,44.5727919 125.180571,44.5360417 C125.270751,44.4992915 125.34879,44.4590419 125.414691,44.4152917 C125.480592,44.3715414 125.534352,44.3312919 125.575973,44.2945417 C125.617595,44.2577915 125.650545,44.2394167 125.674824,44.2394167 C125.702572,44.2394167 125.730319,44.2569165 125.758066,44.2919167 L125.893336,44.5124167 C125.761534,44.6594174 125.594184,44.7775412 125.391279,44.8667917 C125.188374,44.9560421 124.977669,45.0006667 124.759156,45.0006667 Z M130.331781,40.3386667 C130.304033,40.3876669 130.264146,40.4121667 130.21212,40.4121667 C130.173967,40.4121667 130.125409,40.3902919 130.066445,40.3465417 C130.007481,40.3027914 129.928575,40.2537919 129.829724,40.1995417 C129.730873,40.1452914 129.608612,40.0962919 129.462937,40.0525417 C129.317262,40.0087914 129.140373,39.9869167 128.932266,39.9869167 C128.744969,39.9869167 128.57415,40.0140414 128.419804,40.0682917 C128.265458,40.1225419 128.133658,40.1951662 128.024402,40.2861667 C127.915146,40.3771671 127.831037,40.4830411 127.772073,40.6037917 C127.713109,40.7245423 127.683628,40.851416 127.683628,40.9844167 C127.683628,41.1489175 127.725249,41.2854161 127.808492,41.3939167 C127.891735,41.5024172 128.000122,41.5951663 128.133658,41.6721667 C128.267193,41.7491671 128.42067,41.8156664 128.594093,41.8716667 C128.767516,41.9276669 128.943537,41.9836664 129.122163,42.0396667 C129.300788,42.0956669 129.47681,42.1577913 129.650233,42.2260417 C129.823655,42.294292 129.977132,42.3791662 130.110668,42.4806667 C130.244203,42.5821672 130.352591,42.7064159 130.435834,42.8534167 C130.519077,43.0004174 130.560698,43.1789156 130.560698,43.3889167 C130.560698,43.6164178 130.520811,43.8281657 130.441037,44.0241667 C130.361262,44.2201676 130.244203,44.3899159 130.089857,44.5334167 C129.935511,44.6769174 129.745616,44.7906662 129.520166,44.8746667 C129.294716,44.9586671 129.03632,45.0006667 128.74497,45.0006667 C128.380782,45.0006667 128.066892,44.9420423 127.803289,44.8247917 C127.539686,44.7075411 127.303835,44.5544176 127.095728,44.3654167 L127.210186,44.1869167 C127.227528,44.1589165 127.247472,44.1379167 127.270017,44.1239167 C127.292562,44.1099166 127.32291,44.1029167 127.361063,44.1029167 C127.406153,44.1029167 127.46078,44.1309164 127.524947,44.1869167 C127.589113,44.2429169 127.674956,44.3032913 127.782478,44.3680417 C127.890001,44.432792 128.022667,44.4931664 128.180482,44.5491667 C128.338296,44.6051669 128.533394,44.6331667 128.765781,44.6331667 C128.984293,44.6331667 129.17679,44.602542 129.343276,44.5412917 C129.509762,44.4800414 129.648498,44.3969172 129.759488,44.2919167 C129.870479,44.1869161 129.954588,44.0635424 130.011817,43.9217917 C130.069047,43.780041 130.097661,43.6304175 130.097661,43.4729167 C130.097661,43.2979158 130.05604,43.1526672 129.972797,43.0371667 C129.889554,42.9216661 129.7803,42.8236671 129.64503,42.7431667 C129.50976,42.6626663 129.356283,42.5944169 129.184595,42.5384167 C129.012906,42.4824164 128.836885,42.4264169 128.656525,42.3704167 C128.476165,42.3144164 128.300144,42.253167 128.128455,42.1866667 C127.956767,42.1201663 127.80329,42.0361672 127.66802,41.9346667 C127.53275,41.8331662 127.423495,41.7097924 127.340252,41.5645417 C127.25701,41.4192909 127.215389,41.2381678 127.215389,41.0211667 C127.215389,40.8356657 127.255275,40.6571675 127.33505,40.4856667 C127.414824,40.3141658 127.528415,40.1636673 127.675824,40.0341667 C127.823233,39.904666 128.002723,39.8014171 128.214299,39.7244167 C128.425875,39.6474163 128.66346,39.6089167 128.927063,39.6089167 C129.242693,39.6089167 129.522766,39.6544162 129.767292,39.7454167 C130.011818,39.8364171 130.234663,39.9764157 130.435834,40.1654167 L130.331781,40.3386667 Z M138.787256,42.3914167 C138.294735,42.4089168 137.870723,42.4482914 137.515206,42.5095417 C137.159689,42.570792 136.866609,42.6539161 136.635957,42.7589167 C136.405304,42.8639172 136.234486,42.9890409 136.123495,43.1342917 C136.012504,43.2795424 135.95701,43.4449157 135.95701,43.6304167 C135.95701,43.8054175 135.985624,43.956791 136.042854,44.0845417 C136.100083,44.2122923 136.176388,44.3172913 136.271771,44.3995417 C136.367153,44.4817921 136.477275,44.5421665 136.60214,44.5806667 C136.727004,44.6191669 136.857069,44.6384167 136.992339,44.6384167 C137.193509,44.6384167 137.378202,44.6165419 137.546422,44.5727917 C137.714642,44.5290414 137.87072,44.4677921 138.014661,44.3890417 C138.158602,44.3102913 138.293003,44.2166672 138.417867,44.1081667 C138.542732,43.9996661 138.66586,43.8824173 138.787256,43.7564167 L138.787256,42.3914167 Z M135.743701,40.4331667 C136.014241,40.1601653 136.29865,39.9536674 136.596937,39.8136667 C136.895224,39.673666 137.233393,39.6036667 137.611455,39.6036667 C137.888932,39.6036667 138.13172,39.6482912 138.339827,39.7375417 C138.547935,39.8267921 138.720488,39.9545408 138.857492,40.1207917 C138.994496,40.2870425 139.097681,40.4882905 139.16705,40.7245417 C139.236419,40.9607928 139.271103,41.2241652 139.271103,41.5146667 L139.271103,44.9166667 L139.073402,44.9166667 C138.969348,44.9166667 138.905183,44.8676672 138.880904,44.7696667 L138.808066,44.0976667 C138.66586,44.2376674 138.524522,44.3636661 138.38405,44.4756667 C138.243577,44.5876672 138.097037,44.6821663 137.944425,44.7591667 C137.791813,44.8361671 137.627064,44.8956665 137.450173,44.9376667 C137.273282,44.9796669 137.079051,45.0006667 136.867475,45.0006667 C136.690584,45.0006667 136.518898,44.9744169 136.352412,44.9219167 C136.185926,44.8694164 136.037652,44.7889172 135.907585,44.6804167 C135.777518,44.5719161 135.673466,44.4327925 135.595425,44.2630417 C135.517385,44.0932908 135.478365,43.8894179 135.478365,43.6514167 C135.478365,43.4309156 135.540797,43.2261676 135.665661,43.0371667 C135.790526,42.8481657 135.98649,42.6836674 136.253561,42.5436667 C136.520633,42.403666 136.863137,42.2916671 137.281086,42.2076667 C137.699035,42.1236662 138.201087,42.0746667 138.787256,42.0606667 L138.787256,41.5146667 C138.787256,41.0316643 138.684071,40.659793 138.477698,40.3990417 C138.271325,40.1382904 137.965238,40.0079167 137.559429,40.0079167 C137.3097,40.0079167 137.09726,40.0429163 136.922103,40.1129167 C136.746946,40.182917 136.598672,40.2599162 136.477276,40.3439167 C136.35588,40.4279171 136.25703,40.5049163 136.180724,40.5749167 C136.104418,40.644917 136.040253,40.6799167 135.988226,40.6799167 C135.950073,40.6799167 135.918857,40.6711668 135.894578,40.6536667 C135.870299,40.6361666 135.849488,40.6134168 135.832146,40.5854167 L135.743701,40.4331667 Z M141.977063,40.9529167 C142.056838,40.7394156 142.147883,40.5495425 142.250203,40.3832917 C142.352522,40.2170408 142.470448,40.0761672 142.603983,39.9606667 C142.737519,39.8451661 142.88666,39.756792 143.051412,39.6955417 C143.216164,39.6342914 143.399122,39.6036667 143.600292,39.6036667 C143.707814,39.6036667 143.813601,39.6132916 143.917654,39.6325417 C144.021708,39.6517918 144.113621,39.6859164 144.193395,39.7349167 L144.151774,40.0814167 C144.134432,40.1374169 144.101482,40.1654167 144.052924,40.1654167 C144.011302,40.1654167 143.948004,40.1531668 143.863027,40.1286667 C143.778049,40.1041665 143.666193,40.0919167 143.527455,40.0919167 C143.326285,40.0919167 143.148529,40.1225414 142.994183,40.1837917 C142.839836,40.245042 142.7011,40.3369161 142.57797,40.4594167 C142.45484,40.5819173 142.347319,40.7332908 142.255405,40.9135417 C142.163491,41.0937926 142.079382,41.3011655 142.003076,41.5356667 L142.003076,44.9166667 L141.503621,44.9166667 L141.503621,39.6929167 L141.768957,39.6929167 C141.827921,39.6929167 141.869541,39.7051665 141.893821,39.7296667 C141.9181,39.7541668 141.933708,39.7961664 141.940645,39.8556667 L141.977063,40.9529167 Z M148.949203,40.3911667 C148.93186,40.4086668 148.915385,40.4235416 148.899777,40.4357917 C148.884169,40.4480417 148.862492,40.4541667 148.834744,40.4541667 C148.80006,40.4541667 148.753236,40.4305419 148.694272,40.3832917 C148.635309,40.3360414 148.555535,40.2844169 148.45495,40.2284167 C148.354365,40.1724164 148.228635,40.1207919 148.077757,40.0735417 C147.92688,40.0262914 147.743921,40.0026667 147.528877,40.0026667 C147.23059,40.0026667 146.966124,40.0560411 146.735472,40.1627917 C146.504819,40.2695422 146.309722,40.4226657 146.150173,40.6221667 C145.990624,40.8216677 145.870097,41.0631652 145.788588,41.3466667 C145.707079,41.6301681 145.666326,41.9486649 145.666326,42.3021667 C145.666326,42.6696685 145.708814,42.9951652 145.793791,43.2786667 C145.878768,43.5621681 145.999295,43.8010407 146.155375,43.9952917 C146.311456,44.1895426 146.500484,44.3374162 146.722465,44.4389167 C146.944446,44.5404172 147.190703,44.5911667 147.461243,44.5911667 C147.710971,44.5911667 147.919943,44.561417 148.088163,44.5019167 C148.256383,44.4424164 148.395119,44.377667 148.504375,44.3076667 C148.613632,44.2376663 148.699475,44.172917 148.761907,44.1134167 C148.824339,44.0539164 148.876365,44.0241667 148.917987,44.0241667 C148.959608,44.0241667 148.994292,44.0416665 149.02204,44.0766667 L149.152106,44.2446667 C149.072332,44.3496672 148.971748,44.4476662 148.850352,44.5386667 C148.728956,44.6296671 148.591954,44.7084163 148.439342,44.7749167 C148.28673,44.841417 148.121114,44.8930415 147.942488,44.9297917 C147.763863,44.9665419 147.577436,44.9849167 147.383203,44.9849167 C147.053699,44.9849167 146.752815,44.9245423 146.480542,44.8037917 C146.208268,44.6830411 145.97415,44.5080428 145.778183,44.2787917 C145.582215,44.0495405 145.429605,43.7686683 145.320349,43.4361667 C145.211092,43.103665 145.156465,42.7256688 145.156465,42.3021667 C145.156465,41.9031647 145.208491,41.5391683 145.312545,41.2101667 C145.416599,40.881165 145.569208,40.5976679 145.770379,40.3596667 C145.971549,40.1216655 146.216939,39.9370423 146.506555,39.8057917 C146.796171,39.674541 147.128271,39.6089167 147.502864,39.6089167 C147.839304,39.6089167 148.137587,39.6631661 148.397721,39.7716667 C148.657855,39.8801672 148.885036,40.0271657 149.079269,40.2126667 L148.949203,40.3911667 Z M151.452259,40.5749167 C151.691583,40.2809152 151.964719,40.0464175 152.271678,39.8714167 C152.578636,39.6964158 152.922875,39.6089167 153.304405,39.6089167 C153.588819,39.6089167 153.839411,39.6544162 154.056189,39.7454167 C154.272968,39.8364171 154.452458,39.9676658 154.594664,40.1391667 C154.736871,40.3106675 154.844392,40.5171655 154.917229,40.7586667 C154.990067,41.0001679 155.026485,41.2731651 155.026485,41.5776667 L155.026485,44.9166667 L154.52703,44.9166667 L154.52703,41.5776667 C154.52703,41.0876642 154.416041,40.7035431 154.19406,40.4252917 C153.972079,40.1470403 153.633909,40.0079167 153.179542,40.0079167 C152.843101,40.0079167 152.528344,40.0945408 152.235259,40.2677917 C151.942175,40.4410425 151.681177,40.6816651 151.452259,40.9896667 L151.452259,44.9166667 L150.952804,44.9166667 L150.952804,37.2779167 L151.452259,37.2779167 L151.452259,40.5749167 Z M157.805282,39.6929167 L157.805282,44.9166667 L157.31103,44.9166667 L157.31103,39.6929167 L157.805282,39.6929167 Z M158.018591,37.8921667 C158.018591,37.955167 158.005585,38.0137914 157.979571,38.0680417 C157.953558,38.1222919 157.919741,38.1704165 157.87812,38.2124167 C157.836498,38.2544169 157.78794,38.2876665 157.732445,38.3121667 C157.67695,38.3366668 157.617987,38.3489167 157.555555,38.3489167 C157.493123,38.3489167 157.43416,38.3366668 157.378664,38.3121667 C157.323169,38.2876665 157.274612,38.2544169 157.23299,38.2124167 C157.191369,38.1704165 157.158419,38.1222919 157.13414,38.0680417 C157.10986,38.0137914 157.097721,37.955167 157.097721,37.8921667 C157.097721,37.8291664 157.10986,37.768792 157.13414,37.7110417 C157.158419,37.6532914 157.191369,37.6034169 157.23299,37.5614167 C157.274612,37.5194165 157.323169,37.4861668 157.378664,37.4616667 C157.43416,37.4371665 157.493123,37.4249167 157.555555,37.4249167 C157.617987,37.4249167 157.67695,37.4371665 157.732445,37.4616667 C157.78794,37.4861668 157.836498,37.5194165 157.87812,37.5614167 C157.919741,37.6034169 157.953558,37.6532914 157.979571,37.7110417 C158.005585,37.768792 158.018591,37.8291664 158.018591,37.8921667 Z M164.30398,39.6929167 L162.118864,44.9166667 L161.681841,44.9166667 L159.496724,39.6929167 L159.886924,39.6929167 C159.935482,39.6929167 159.975369,39.7060415 160.006585,39.7322917 C160.037801,39.7585418 160.058611,39.7874165 160.069017,39.8189167 L161.780691,43.9401667 C161.832718,44.0941674 161.874339,44.2464159 161.905555,44.3969167 C161.936771,44.2464159 161.980126,44.0941674 162.035621,43.9401667 L163.752498,39.8189167 C163.769841,39.7804165 163.793252,39.7497918 163.822734,39.7270417 C163.852216,39.7042916 163.887767,39.6929167 163.929389,39.6929167 L164.30398,39.6929167 Z M169.57485,41.7771667 C169.57485,41.4971653 169.535831,41.2460428 169.457791,41.0237917 C169.37975,40.8015406 169.269629,40.6134174 169.127422,40.4594167 C168.985215,40.3054159 168.816131,40.1872921 168.620163,40.1050417 C168.424195,40.0227913 168.208287,39.9816667 167.972432,39.9816667 C167.705361,39.9816667 167.466041,40.0236662 167.254465,40.1076667 C167.042889,40.1916671 166.859931,40.3124159 166.705585,40.4699167 C166.551238,40.6274175 166.427243,40.8164156 166.333595,41.0369167 C166.239946,41.2574178 166.177515,41.5041653 166.146299,41.7771667 L169.57485,41.7771667 Z M166.120286,42.0974167 L166.120286,42.1971667 C166.120286,42.5891686 166.165375,42.9339152 166.255555,43.2314167 C166.345735,43.5289182 166.474066,43.7782907 166.640551,43.9795417 C166.807037,44.1807927 167.008205,44.3321662 167.24406,44.4336667 C167.479915,44.5351672 167.743513,44.5859167 168.034864,44.5859167 C168.294998,44.5859167 168.520444,44.557042 168.711209,44.4992917 C168.901974,44.4415414 169.062388,44.376792 169.192455,44.3050417 C169.322522,44.2332913 169.425707,44.168542 169.502013,44.1107917 C169.578319,44.0530414 169.633814,44.0241667 169.668498,44.0241667 C169.713588,44.0241667 169.748272,44.0416665 169.772551,44.0766667 L169.907821,44.2446667 C169.824578,44.3496672 169.714456,44.4476662 169.577452,44.5386667 C169.440448,44.6296671 169.287838,44.7075413 169.119618,44.7722917 C168.951398,44.837042 168.771041,44.8886665 168.578542,44.9271667 C168.386042,44.9656669 168.192679,44.9849167 167.998445,44.9849167 C167.644663,44.9849167 167.322101,44.9227923 167.030751,44.7985417 C166.739401,44.674291 166.489675,44.4931679 166.281568,44.2551667 C166.073461,44.0171655 165.913047,43.7257934 165.800322,43.3810417 C165.687597,43.0362899 165.631236,42.6416689 165.631236,42.1971667 C165.631236,41.8226648 165.684129,41.4770433 165.789917,41.1602917 C165.895705,40.8435401 166.048315,40.5705428 166.247751,40.3412917 C166.447187,40.1120405 166.69171,39.9326673 166.981326,39.8031667 C167.270942,39.673666 167.599573,39.6089167 167.967229,39.6089167 C168.25858,39.6089167 168.529115,39.6596662 168.778844,39.7611667 C169.028573,39.8626672 169.245348,40.0105407 169.429176,40.2047917 C169.613004,40.3990426 169.75781,40.6379152 169.863598,40.9214167 C169.969386,41.2049181 170.022279,41.5304148 170.022279,41.8979167 C170.022279,41.9749171 170.011874,42.0274165 169.991063,42.0554167 C169.970252,42.0834168 169.935568,42.0974167 169.88701,42.0974167 L166.120286,42.0974167 Z" id="an-open-preprints-ar" fill="#000000"></path>
                </g>
            </g>
        </g>
    </g>
</svg>